<svg width="102" height="22" viewBox="0 0 102 22" fill="none" xmlns="http://www.w3.org/2000/svg">
<path d="M11.0438 16.7836C10.4365 17.1892 9.50471 17.5032 8.45022 17.524C7.41444 17.551 6.51594 17.2308 5.91694 16.665C5.11411 15.9017 4.7023 14.5852 4.7023 12.7694C4.7023 10.9995 5.20771 8.01278 8.51677 7.78192C8.96602 7.74864 10.1703 7.65505 11.0438 7.63217V16.7836ZM11.0438 0.340158V3.99656H8.70604C1.78425 3.99656 0.34082 9.16711 0.34082 12.8921C0.34082 15.6189 1.17277 17.9857 2.66611 19.5581C3.95355 20.8996 5.67776 21.6172 7.65987 21.6172C8.98682 21.6172 10.1058 21.3697 11.0438 20.8747L11.0688 21.2491H15.6362V0.340158H11.0438Z" fill="black"/>
<path d="M23.4501 10.1723C23.916 8.51883 25.0599 7.45809 26.8923 7.45809C28.5978 7.45809 29.7625 8.65402 29.9018 10.1723H23.4501ZM34.3881 10.2493C34.2134 8.29628 33.4958 6.64279 32.327 5.49262C31.0187 4.20102 29.1843 3.54171 26.8923 3.54171C24.2488 3.54171 22.0732 4.52132 20.5924 6.37032C19.2737 8.01134 18.5479 10.3075 18.5479 12.8408C18.5479 17.0692 20.9397 21.6074 27.6431 21.6074C30.2117 21.6074 32.7201 20.8108 34.1593 20.0933V15.8587C33.3586 16.3017 30.9064 17.6266 27.5578 17.5662C25.1015 17.5246 23.7787 16.2039 23.3648 13.8766H34.4318L34.438 13.706C34.463 12.1461 34.4318 10.8296 34.3881 10.2493Z" fill="black"/>
<path d="M46.4268 3.58362C44.9418 3.58362 43.3029 4.14102 42.6706 4.37605L42.6498 3.99751H38.0762V21.25H42.6706V8.32779C43.6627 7.70799 45.1997 7.44801 46.4435 7.73919C47.6748 8.02829 48.28 8.80824 48.28 11.042V21.25H52.8619V10.364C52.8619 5.80284 50.7613 3.58362 46.4268 3.58362Z" fill="black"/>
<path d="M97.2753 3.9928V16.915C96.2978 17.541 94.7504 17.7969 93.5066 17.5119C92.2774 17.2228 91.6742 16.447 91.6742 14.2008V3.9928H87.084V14.883C87.084 19.442 89.1909 21.6592 93.5191 21.6592C95.0062 21.6592 96.6514 21.108 97.2753 20.8667L97.3024 21.2453H101.866V3.9928H97.2753Z" fill="black"/>
<path d="M61.3304 0.341856H56.7422V15.3148C56.7422 17.3739 57.0999 18.8173 57.8632 19.8364C58.7617 21.0428 60.2301 21.623 62.3453 21.623C64.0446 21.623 65.6815 21.2508 66.6382 20.9492V16.8186C66.0454 16.9683 64.2276 17.3593 63.1752 17.3593C62.5076 17.3593 62.0375 17.22 61.7484 16.9309C61.3304 16.5045 61.3304 15.7786 61.3304 15.0798V7.79194C63.1295 7.79194 65.382 7.91673 66.6382 8.05192V3.99826H61.3304V0.341856Z" fill="black"/>
<path d="M78.2632 10.4675C77.1858 10.2719 75.9108 10.0452 75.1746 9.63967C74.8168 9.44416 74.6276 9.16754 74.6317 8.8618C74.6442 8.5623 74.8501 8.2732 75.1558 8.12344C75.8235 7.75323 77.036 7.57436 78.8788 7.9113C80.6488 8.22952 82.6122 8.91171 83.2195 9.16754V5.00364C81.098 3.95123 79.2095 3.5415 77.0839 3.5727C75.1101 3.61013 73.4046 4.12594 72.1484 5.0598C70.8256 6.06022 70.081 7.48493 70.0061 9.18834C69.8709 12.0523 71.6679 13.7661 75.8089 14.571C76.67 14.7416 77.9241 14.9974 78.4566 15.2199C78.9932 15.4321 79.3114 15.7857 79.3114 16.1871C79.3156 16.5719 79.0431 16.9338 78.6126 17.1168C77.8368 17.4412 76.5743 17.3934 75.7715 17.3081C73.4004 17.0689 71.1334 16.2308 70.3118 15.8668V20.143C71.7137 20.8543 73.9246 21.6759 76.5473 21.6384C79.5506 21.5781 83.2777 20.6838 83.9495 16.7237C84.2074 15.2532 83.9454 13.9242 83.1924 12.8759C82.2731 11.6093 80.8568 10.9541 78.2632 10.4675Z" fill="black"/>
</svg>
