<svg width="103" height="37" viewBox="0 0 103 37" fill="none" xmlns="http://www.w3.org/2000/svg">
<path d="M101.934 2.35905C101.79 2.01325 101.588 1.70958 101.329 1.44815C101.071 1.18674 100.766 0.983912 100.414 0.839535C100.063 0.69529 99.6833 0.623047 99.2748 0.623047C98.8663 0.623047 98.4864 0.696567 98.1351 0.843617C97.7839 0.990668 97.4775 1.19631 97.2161 1.46041C96.9547 1.72465 96.7504 2.03099 96.6034 2.37947C96.4563 2.72807 96.3828 3.10387 96.3828 3.50685C96.3828 3.90996 96.4549 4.28575 96.5993 4.63423C96.7435 4.98283 96.9465 5.28919 97.2079 5.55328C97.4693 5.81751 97.7743 6.02303 98.1229 6.17008C98.4714 6.31713 98.85 6.39066 99.2585 6.39066C99.6669 6.39066 100.045 6.31713 100.394 6.17008C100.742 6.02303 101.049 5.81752 101.313 5.55328C101.577 5.28919 101.783 4.98143 101.93 4.63014C102.077 4.27886 102.15 3.89897 102.15 3.49051C102.15 3.08204 102.078 2.70496 101.934 2.35905ZM101.223 4.35238C101.139 4.56146 101.028 4.74876 100.891 4.91511L100.328 4.04578C100.367 4.02311 100.404 3.99881 100.439 3.97251C100.692 3.78193 100.819 3.496 100.819 3.11472C100.819 2.76624 100.692 2.48847 100.439 2.28143C100.186 2.07452 99.8303 1.971 99.3728 1.971H97.9105V5.04269H99.0869V4.25844H99.2732L99.7813 5.04269H100.778C100.587 5.23876 100.363 5.3927 100.104 5.50427C99.8452 5.61596 99.5634 5.67174 99.2585 5.67174C98.9534 5.67174 98.6715 5.61736 98.4129 5.50835C98.1542 5.39947 97.9309 5.24694 97.743 5.05087C97.5551 4.8548 97.4093 4.62478 97.306 4.36056C97.2024 4.09645 97.1507 3.81193 97.1507 3.50685C97.1507 3.2019 97.2024 2.91737 97.306 2.65315C97.4093 2.38904 97.5564 2.15889 97.7471 1.96282C97.9377 1.76676 98.1623 1.61435 98.4211 1.50533C98.6797 1.39646 98.9644 1.34195 99.2748 1.34195C99.5852 1.34195 99.8697 1.39505 100.128 1.50125C100.387 1.60746 100.609 1.75731 100.794 1.95056C100.979 2.14395 101.124 2.3713 101.227 2.63271C101.331 2.89414 101.383 3.18007 101.383 3.49051C101.383 3.80095 101.329 4.08828 101.223 4.35238ZM99.0869 3.44966V2.77977H99.2993C99.4082 2.77977 99.4926 2.80977 99.5526 2.86964C99.6124 2.92963 99.6424 3.01132 99.6424 3.11472C99.6424 3.21824 99.6124 3.29994 99.5526 3.3598C99.4926 3.4198 99.4082 3.44966 99.2993 3.44966H99.0869Z" fill="white"/>
<path d="M63.7977 29.4947C62.1664 28.4118 60.3178 27.8478 58.2224 27.8713C56.3131 27.8928 54.4018 27.8713 52.4924 27.8713C46.2062 27.8713 39.9181 27.8713 33.63 27.8693C32.6704 27.8693 32.6685 27.8654 32.6665 26.8921C32.6626 25.7289 32.6842 24.5657 32.6567 23.4044C32.643 22.8541 32.7977 22.6152 33.4009 22.6172C40.6212 22.6328 47.8414 22.6289 55.0597 22.6269C56.1172 22.6269 57.0004 23.0166 57.7426 23.7647C59.5061 25.5421 60.4883 26.4501 60.4647 26.4711C60.4368 26.4959 59.1691 25.1386 54.8463 20.3534C54.3567 19.8795 53.8671 19.4055 53.4069 18.9042C51.1921 16.4975 48.47 15.3793 45.1957 15.4263C41.3085 15.483 37.4193 15.4243 33.5301 15.4497C32.8467 15.4556 32.6274 15.2246 32.6528 14.5646C32.69 13.4973 32.6842 12.4242 32.6528 11.355C32.6352 10.7439 32.8682 10.5618 33.4733 10.5657C36.6184 10.5932 39.7615 10.5755 42.9045 10.5795C43.6657 10.5807 44.365 10.7318 44.9898 11.0672C45.6389 11.4156 45.9969 11.9084 46.0319 11.8778C46.0669 11.8473 45.7209 11.354 44.0717 9.34769C43.9659 9.25955 43.8621 9.16752 43.7603 9.06568C42.9887 8.29216 42.1976 7.53429 41.4397 6.74509C39.2738 4.49304 36.6458 3.38074 33.5086 3.43165C31.6678 3.46101 29.8309 3.46297 27.9881 3.44925C27.9587 3.44925 27.9294 3.44339 27.9 3.43947C27.8706 3.43165 27.8393 3.42969 27.806 3.42969H0.522877C0.235011 3.42969 0 3.66468 0 3.95254V9.25761C0 9.95671 0.565955 10.5246 1.26702 10.5246H8.45009C9.1492 10.5246 9.71515 11.0906 9.71515 11.7897V34.5354C9.71515 34.8233 9.9482 35.0602 10.238 35.0602H18.1359C18.4276 35.0602 18.6607 34.8233 18.6607 34.5354V11.0475C18.6607 10.7596 18.8957 10.5246 19.1855 10.5246H24.7413C25.1525 10.5246 25.4834 10.8556 25.4834 11.2668C25.4815 12.3263 25.4795 13.3838 25.4776 14.4432C25.4776 14.688 25.4756 14.8721 25.4599 15.0111C25.456 15.0385 25.4541 15.064 25.4541 15.0894V23.1772C25.4541 23.2007 25.456 23.2242 25.4599 23.2477C25.4756 23.3848 25.4776 23.5669 25.4776 23.8078C25.4815 27.2505 25.4795 30.6932 25.4815 34.1339C25.4815 35.023 25.5187 35.0524 26.3706 35.0504H46.8388V35.0211C53.6145 35.0211 60.3922 35.0308 67.1679 35.0152C67.8759 35.0131 68.5143 35.1347 69.097 35.3954C69.9726 35.7872 70.4652 36.3864 70.4755 36.3762C70.4929 36.3591 68.9886 34.7947 63.7977 29.4947Z" fill="white"/>
<path d="M93.5176 33.356L81.4421 17.681C81.2241 17.3994 81.2415 17.002 81.4846 16.7397L91.7603 5.60752C92.5222 4.78191 91.9377 3.44318 90.8132 3.44318H84.3954C84.1909 3.44318 83.998 3.52807 83.8592 3.67661L73.3057 15.0017C72.8543 15.4859 72.0403 15.1656 72.0403 14.504V4.17234C72.0403 3.76919 71.7143 3.44318 71.3111 3.44318H63.3367V3.42969C57.1967 3.43162 51.0567 3.43162 44.9168 3.43355C44.2956 3.43355 43.9851 4.18393 44.4249 4.62181L49.6428 9.82428C50.0633 10.2448 50.6343 10.4821 51.2303 10.4821C54.8723 10.4821 58.5142 10.4801 62.1542 10.484C62.8081 10.4859 63.3367 11.0144 63.3367 11.6665V14.0256C63.3367 14.6853 62.8023 15.2197 62.1426 15.2197C60.3139 15.2177 58.4833 15.2158 56.6546 15.2158C56.0624 15.2158 55.7654 15.9334 56.1859 16.352L62.1445 22.2952H62.1465C62.5438 22.6906 62.9393 23.088 63.3367 23.4854L70.5877 30.7171C71.124 31.2534 72.0402 30.8734 72.0402 30.1153V27.0308C72.0402 26.8457 72.1116 26.6682 72.237 26.5312L74.7254 23.8673C75.0302 23.5394 75.5568 23.5606 75.8326 23.9136L83.9903 34.253C84.1292 34.4285 84.3395 34.5308 84.5632 34.5308H92.9389C93.5465 34.5308 93.8879 33.8344 93.5176 33.356Z" fill="white"/>
</svg>
