<svg width="103" height="36" viewBox="0 0 103 36" fill="none" xmlns="http://www.w3.org/2000/svg">
<path d="M101.934 1.736C101.79 1.3902 101.588 1.08653 101.329 0.825107C101.071 0.563692 100.766 0.360865 100.414 0.216488C100.063 0.0722431 99.6833 0 99.2748 0C98.8663 0 98.4864 0.0735197 98.1351 0.22057C97.7839 0.367621 97.4775 0.57326 97.2161 0.837366C96.9547 1.1016 96.7504 1.40795 96.6034 1.75642C96.4563 2.10503 96.3828 2.48082 96.3828 2.8838C96.3828 3.28691 96.4549 3.6627 96.5993 4.01118C96.7435 4.35979 96.9465 4.66614 97.2079 4.93023C97.4693 5.19447 97.7743 5.39998 98.1229 5.54703C98.4714 5.69408 98.85 5.76761 99.2585 5.76761C99.6669 5.76761 100.045 5.69408 100.394 5.54703C100.742 5.39998 101.049 5.19447 101.313 4.93023C101.577 4.66614 101.783 4.35838 101.93 4.0071C102.077 3.65582 102.15 3.27593 102.15 2.86746C102.15 2.45899 102.078 2.08192 101.934 1.736ZM101.223 3.72934C101.139 3.93841 101.028 4.12572 100.891 4.29206L100.328 3.42274C100.367 3.40006 100.404 3.37576 100.439 3.34946C100.692 3.15889 100.819 2.87295 100.819 2.49167C100.819 2.14319 100.692 1.86543 100.439 1.65838C100.186 1.45148 99.8303 1.34795 99.3728 1.34795H97.9105V4.41965H99.0869V3.63539H99.2732L99.7813 4.41965H100.778C100.587 4.61572 100.363 4.76965 100.104 4.88122C99.8452 4.99291 99.5634 5.04869 99.2585 5.04869C98.9534 5.04869 98.6715 4.99432 98.4129 4.88531C98.1542 4.77643 97.9309 4.62389 97.743 4.42782C97.5551 4.23175 97.4093 4.00173 97.306 3.73751C97.2024 3.47341 97.1507 3.18888 97.1507 2.8838C97.1507 2.57885 97.2024 2.29433 97.306 2.0301C97.4093 1.76599 97.5564 1.53585 97.7471 1.33977C97.9377 1.14371 98.1623 0.991299 98.4211 0.882288C98.6797 0.773408 98.9644 0.718903 99.2748 0.718903C99.5852 0.718903 99.8697 0.772006 100.128 0.878206C100.387 0.984412 100.609 1.13427 100.794 1.32752C100.979 1.52091 101.124 1.74825 101.227 2.00967C101.331 2.27109 101.383 2.55702 101.383 2.86746C101.383 3.1779 101.329 3.46523 101.223 3.72934ZM99.0869 2.82661V2.15672H99.2993C99.4082 2.15672 99.4926 2.18672 99.5526 2.24659C99.6124 2.30658 99.6424 2.38827 99.6424 2.49167C99.6424 2.5952 99.6124 2.67689 99.5526 2.73675C99.4926 2.79675 99.4082 2.82661 99.2993 2.82661H99.0869Z" fill="#CA0105"/>
<path d="M63.7977 28.8736C62.1664 27.7907 60.3178 27.2267 58.2224 27.2502C56.3131 27.2717 54.4018 27.2502 52.4924 27.2502C46.2062 27.2502 39.9181 27.2502 33.63 27.2482C32.6704 27.2482 32.6685 27.2443 32.6665 26.271C32.6626 25.1078 32.6842 23.9446 32.6567 22.7833C32.643 22.233 32.7977 21.9941 33.4009 21.9961C40.6212 22.0117 47.8414 22.0078 55.0597 22.0059C56.1172 22.0059 57.0004 22.3956 57.7426 23.1436C59.5061 24.921 60.4883 25.829 60.4647 25.85C60.4368 25.8748 59.1691 24.5175 54.8463 19.7323C54.3567 19.2584 53.8671 18.7844 53.4069 18.2831C51.1921 15.8764 48.47 14.7582 45.1957 14.8052C41.3085 14.862 37.4193 14.8032 33.5301 14.8287C32.8467 14.8345 32.6274 14.6035 32.6528 13.9435C32.69 12.8762 32.6842 11.8031 32.6528 10.7339C32.6352 10.1228 32.8682 9.94073 33.4733 9.94465C36.6184 9.97207 39.7615 9.95446 42.9045 9.95838C43.6657 9.9596 44.365 10.1107 44.9898 10.4461C45.6389 10.7945 45.9969 11.2873 46.0319 11.2567C46.0669 11.2262 45.7209 10.7329 44.0717 8.7266C43.9659 8.63846 43.8621 8.54642 43.7603 8.44459C42.9887 7.67106 42.1976 6.9132 41.4397 6.124C39.2738 3.87195 36.6458 2.75964 33.5086 2.81056C31.6678 2.83991 29.8309 2.84188 27.9881 2.82815C27.9587 2.82815 27.9294 2.8223 27.9 2.81837C27.8706 2.81056 27.8393 2.80859 27.806 2.80859H0.522877C0.235011 2.80859 0 3.04358 0 3.33145V8.63652C0 9.33562 0.565955 9.90353 1.26702 9.90353H8.45009C9.1492 9.90353 9.71515 10.4695 9.71515 11.1686V33.9143C9.71515 34.2022 9.9482 34.4391 10.238 34.4391H18.1359C18.4276 34.4391 18.6607 34.2022 18.6607 33.9143V10.4264C18.6607 10.1385 18.8957 9.90353 19.1855 9.90353H24.7413C25.1525 9.90353 25.4834 10.2345 25.4834 10.6457C25.4815 11.7052 25.4795 12.7627 25.4776 13.8221C25.4776 14.0669 25.4756 14.251 25.4599 14.39C25.456 14.4174 25.4541 14.4429 25.4541 14.4683V22.5561C25.4541 22.5796 25.456 22.6031 25.4599 22.6266C25.4756 22.7637 25.4776 22.9458 25.4776 23.1867C25.4815 26.6294 25.4795 30.0721 25.4815 33.5129C25.4815 34.4019 25.5187 34.4313 26.3706 34.4293H46.8388V34.4C53.6145 34.4 60.3922 34.4097 67.1679 34.3941C67.8759 34.392 68.5143 34.5136 69.097 34.7743C69.9726 35.1661 70.4652 35.7653 70.4755 35.7551C70.4929 35.738 68.9886 34.1736 63.7977 28.8736Z" fill="#CA0105"/>
<path d="M93.5176 32.7349L81.4421 17.0599C81.2241 16.7783 81.2415 16.3809 81.4846 16.1186L91.7603 4.98643C92.5222 4.16082 91.9377 2.82209 90.8132 2.82209H84.3954C84.1909 2.82209 83.998 2.90698 83.8592 3.05551L73.3057 14.3806C72.8543 14.8648 72.0403 14.5445 72.0403 13.8829V3.55125C72.0403 3.1481 71.7143 2.82209 71.3111 2.82209H63.3367V2.80859C57.1967 2.81052 51.0567 2.81052 44.9168 2.81245C44.2956 2.81245 43.9851 3.56283 44.4249 4.00072L49.6428 9.20319C50.0633 9.62369 50.6343 9.86097 51.2303 9.86097C54.8723 9.86097 58.5142 9.85905 62.1542 9.86288C62.8081 9.86481 63.3367 10.3934 63.3367 11.0454V13.4045C63.3367 14.0642 62.8023 14.5986 62.1426 14.5986C60.3139 14.5966 58.4833 14.5947 56.6546 14.5947C56.0624 14.5947 55.7654 15.3123 56.1859 15.7309L62.1445 21.6741H62.1465C62.5438 22.0695 62.9393 22.4669 63.3367 22.8643L70.5877 30.0961C71.124 30.6323 72.0402 30.2523 72.0402 29.4942V26.4097C72.0402 26.2246 72.1116 26.0471 72.237 25.9101L74.7254 23.2462C75.0302 22.9183 75.5568 22.9395 75.8326 23.2925L83.9903 33.6319C84.1292 33.8074 84.3395 33.9097 84.5632 33.9097H92.9389C93.5465 33.9097 93.8879 33.2133 93.5176 32.7349Z" fill="#CA0105"/>
</svg>
