<svg width="32" height="32" viewBox="0 0 32 32" fill="none" xmlns="http://www.w3.org/2000/svg">
<path d="M3.01908 31.9999H28.4711C29.2721 31.9992 30.04 31.6802 30.6061 31.1137C31.1722 30.5468 31.4903 29.7787 31.4903 28.9777V12.8151C31.49 12.563 31.3785 12.3237 31.1856 12.1614L26.972 8.60172V2.39594C26.972 1.76058 26.7196 1.15106 26.2703 0.701687C25.8209 0.252339 25.2114 0 24.576 0H7.08212C6.44656 0 5.83723 0.252369 5.38786 0.701687C4.93851 1.15104 4.68593 1.76058 4.68593 2.39594V8.47165L0.304659 12.1614C0.111744 12.3238 0.000238378 12.563 0 12.8151V28.9778C0 29.7788 0.318027 30.5469 0.884138 31.1137C1.45024 31.6803 2.21808 31.9993 3.01915 32L3.01908 31.9999ZM28.4681 30.2885H3.01908C2.67192 30.2878 2.33933 30.1493 2.09435 29.9034C1.84915 29.6577 1.71138 29.3249 1.71138 28.9777V14.4476L11.4665 21.3484L4.54197 26.647C4.16401 26.9306 4.08737 27.4669 4.37078 27.8451C4.65442 28.223 5.19092 28.2997 5.5689 28.016L12.9317 22.382L15.3277 24.0934C15.624 24.3033 16.0206 24.3033 16.3169 24.0934L18.7128 22.382L26.0787 28.0058C26.4569 28.2894 26.9932 28.2128 27.2768 27.8348C27.5605 27.4566 27.4838 26.9204 27.1056 26.6367L20.1951 21.3484L29.7791 14.5711V28.9813V28.9811C29.7782 29.3276 29.6402 29.6597 29.395 29.9046C29.15 30.1496 28.8181 30.2878 28.4715 30.2885L28.4681 30.2885ZM29.2999 12.8111L26.9722 14.4576V10.8397L29.2999 12.8111ZM7.08183 1.71431H24.5794C24.7611 1.71431 24.9352 1.78641 25.0636 1.91462C25.1918 2.04308 25.2639 2.21713 25.2639 2.39883V15.6588L15.8303 22.337L6.40027 15.6588V2.39516C6.40218 2.01983 6.70588 1.71591 7.08148 1.7142L7.08183 1.71431ZM4.68589 14.4578L2.2625 12.7463L4.68589 10.6925V14.4578ZM15.7448 17.9422H15.964C16.4365 17.9422 16.8197 17.559 16.8197 17.0865C16.8197 16.6138 16.4365 16.2308 15.964 16.2308H15.7448C14.2977 16.2308 12.91 15.6559 11.8867 14.6326C10.8636 13.6095 10.2886 12.2218 10.2886 10.7747C10.2886 9.32755 10.8636 7.93989 11.8867 6.91657C12.91 5.8935 14.2977 5.31852 15.7448 5.31852C17.1919 5.31852 18.5796 5.89345 19.6029 6.91657C20.626 7.93989 21.201 9.32755 21.201 10.7747V12.2361C21.1812 12.5632 20.9954 12.8574 20.7084 13.0154C20.4217 13.1735 20.0735 13.1735 19.7868 13.0154C19.4998 12.8574 19.3141 12.5632 19.2942 12.2361V10.7747C19.3014 9.69215 18.8155 8.66523 17.9739 7.98432C17.1325 7.30335 16.0268 7.04218 14.9696 7.27499C13.9123 7.50755 13.0184 8.20876 12.5404 9.18006C12.0627 10.1514 12.0526 11.2874 12.5135 12.267C12.9743 13.2464 13.8558 13.9632 14.9089 14.2143C15.9619 14.4652 17.0719 14.2236 17.9252 13.5575C18.3127 14.2504 18.9891 14.7343 19.7701 14.8771C20.5511 15.0201 21.355 14.8072 21.9629 14.2962C22.5705 13.7855 22.9187 13.0301 22.9124 12.2362V10.7748C22.9124 8.87372 22.1573 7.0508 20.813 5.70659C19.4688 4.36239 17.6459 3.60716 15.7448 3.60716C13.8438 3.60716 12.0209 4.36233 10.6767 5.70659C9.33245 7.0508 8.57722 8.87372 8.57722 10.7748C8.57722 12.6758 9.33239 14.4987 10.6767 15.8429C12.0209 17.1871 13.8438 17.9424 15.7448 17.9424L15.7448 17.9422ZM15.7448 12.6126C15.2572 12.6126 14.7898 12.419 14.445 12.0745C14.1004 11.7297 13.9068 11.2622 13.9068 10.7746C13.9068 10.2871 14.1004 9.81961 14.445 9.47481C14.7897 9.13028 15.2572 8.93641 15.7448 8.93641C16.2324 8.93641 16.6998 9.13028 17.0446 9.47481C17.3892 9.81958 17.5828 10.2871 17.5828 10.7746C17.5828 11.2622 17.3892 11.7297 17.0446 12.0745C16.6999 12.419 16.2324 12.6126 15.7448 12.6126Z" fill="white"/>
</svg>
