<svg width="42" height="43" viewBox="0 0 42 43" fill="none" xmlns="http://www.w3.org/2000/svg">
<path d="M29.1245 4.38869C29.1245 4.38869 28.3834 1.34375 20.7845 1.34375C9.02087 1.34375 2.59766 9.03672 2.59766 19.1679V41.6562H20.7845C15.5311 41.6562 6.73322 33.8208 6.73322 27.3238C6.73322 27.3238 3.89672 26.58 3.89672 22.274C3.89672 18.8649 6.03563 18.2797 6.03563 18.2797C13.702 18.2797 27.9294 8.0625 27.9294 8.0625C27.9294 8.0625 30.9107 17.0831 35.4665 18.2797C35.4665 18.2797 37.6723 18.6969 37.6723 22.274C37.6723 26.5794 34.7293 27.3238 34.7293 27.3238C34.6897 33.8208 26.0405 41.6562 20.7845 41.6562H38.9714V19.1679C38.9714 4.10852 29.1245 4.38869 29.1245 4.38869Z" fill="white"/>
<path d="M20.7869 31.5785C23.5019 31.5771 24.8594 29.5628 23.5019 29.5628H18.0712C16.7137 29.5628 18.0705 31.5785 20.7869 31.5785ZM31.5041 22.5082C31.5019 21.7798 31.2431 21.0773 30.776 20.5322C31.2749 20.6068 31.7666 20.6934 32.2466 20.7566C32.6551 20.8802 33.0598 21.0126 33.4495 21.1671C33.5177 21.407 33.5157 21.755 33.443 22.0909C33.351 22.519 33.2215 22.9376 33.0559 23.3413C32.8864 23.7581 32.6936 24.1644 32.4784 24.5581C32.3693 24.7563 32.2576 24.9518 32.1309 25.1379C32.0017 25.3193 31.8822 25.5235 31.6854 25.6337C32.1257 25.4799 32.431 25.0868 32.7383 24.7495C33.0338 24.3901 33.3092 24.0091 33.5437 23.5986C33.7781 23.1881 33.9964 22.7601 34.1386 22.2797C34.2556 21.8464 34.3848 21.3505 34.2068 20.7875C34.7661 20.6894 35.2799 20.4657 35.7254 20.033C32.8026 21.3465 25.4953 15.2082 24.0339 24.4143C24.5516 23.0551 25.1628 22.1346 25.8318 21.5165C25.7203 21.8345 25.6616 22.1698 25.6584 22.5082C25.6584 23.31 25.9663 24.0791 26.5145 24.6461C27.0626 25.2131 27.8061 25.5316 28.5812 25.5316C29.3564 25.5316 30.0999 25.2131 30.648 24.6461C31.1962 24.0791 31.5041 23.31 31.5041 22.5082ZM15.9154 22.5082C15.9154 22.1588 15.8472 21.8282 15.74 21.5171C16.4097 22.1353 17.0202 23.0551 17.5392 24.4149C16.0778 15.2082 8.77055 21.3472 5.84766 20.0336C6.29323 20.467 6.80701 20.6901 7.36626 20.7882C7.18764 21.3512 7.31819 21.847 7.43446 22.2804C7.57671 22.7608 7.79365 23.1888 8.02813 23.5993C8.2648 24.0057 8.53423 24.3907 8.83355 24.7502C9.14208 25.0875 9.44736 25.4812 9.88774 25.6344C9.68963 25.5242 9.57207 25.3193 9.44216 25.1386C9.31698 24.9514 9.201 24.7579 9.09466 24.5587C8.87887 24.1654 8.68605 23.7591 8.51723 23.342C8.3518 22.9381 8.22181 22.5196 8.12881 22.0916C8.05801 21.7557 8.05411 21.4076 8.12361 21.1678C8.51473 21.0138 8.91219 20.8778 9.31485 20.7599C9.79681 20.6954 10.2943 20.6088 10.7951 20.5328C10.3299 21.0786 10.072 21.7805 10.0696 22.5082C10.0696 22.9052 10.1452 23.2984 10.2921 23.6652C10.439 24.032 10.6543 24.3653 10.9257 24.6461C11.1971 24.9268 11.5193 25.1495 11.874 25.3015C12.2286 25.4534 12.6087 25.5316 12.9925 25.5316C13.3763 25.5316 13.7564 25.4534 14.111 25.3015C14.4657 25.1495 14.7879 24.9268 15.0593 24.6461C15.3307 24.3653 15.546 24.032 15.6929 23.6652C15.8398 23.2984 15.9154 22.9052 15.9154 22.5082ZM23.3493 33.6714C21.4364 32.9222 20.7869 34.1121 20.7869 34.1121C20.7869 34.1121 20.1373 32.9222 18.2245 33.6714C16.7299 34.2566 14.2831 33.9099 14.2916 33.9126C18.1888 39.6403 23.385 39.6403 27.2822 33.9126C27.2913 33.9106 24.8438 34.2566 23.3493 33.6714Z" fill="white"/>
</svg>
