<svg width="36" height="25" viewBox="0 0 36 25" fill="none" xmlns="http://www.w3.org/2000/svg">
<path d="M0.5 1.99125C0.5 1.02875 1.2805 0.25 2.24125 0.25H16.2587C16.7206 0.25 17.1635 0.433452 17.49 0.76C17.8165 1.08655 18 1.52944 18 1.99125C18 2.45306 17.8165 2.89595 17.49 3.2225C17.1635 3.54905 16.7206 3.7325 16.2587 3.7325H2.24125C1.77944 3.7325 1.33655 3.54905 1.01 3.2225C0.683453 2.89595 0.5 2.45306 0.5 1.99125ZM0.5 12.5C0.5 11.5375 1.2805 10.7587 2.24125 10.7587H33.7587C34.2206 10.7587 34.6635 10.9422 34.99 11.2688C35.3165 11.5953 35.5 12.0382 35.5 12.5C35.5 12.9618 35.3165 13.4047 34.99 13.7312C34.6635 14.0578 34.2206 14.2413 33.7587 14.2413H2.24125C1.77944 14.2413 1.33655 14.0578 1.01 13.7312C0.683453 13.4047 0.5 12.9618 0.5 12.5ZM2.24125 21.2675C1.77944 21.2675 1.33655 21.451 1.01 21.7775C0.683453 22.104 0.5 22.5469 0.5 23.0087C0.5 23.4706 0.683453 23.9135 1.01 24.24C1.33655 24.5665 1.77944 24.75 2.24125 24.75H23.2588C23.7206 24.75 24.1635 24.5665 24.49 24.24C24.8165 23.9135 25 23.4706 25 23.0087C25 22.5469 24.8165 22.104 24.49 21.7775C24.1635 21.451 23.7206 21.2675 23.2588 21.2675H2.24125Z" fill="white"/>
</svg>
