<svg width="42" height="43" viewBox="0 0 42 43" fill="none" xmlns="http://www.w3.org/2000/svg">
<path d="M39.3314 18.935C38.7767 3.50808 35.1023 0 20.7833 0C6.46433 0 2.78998 3.5088 2.23528 18.935C1.1954 19.1981 0 20.1727 0 23.2659C0 26.8212 1.98087 27.9701 3.85925 28.2596C4.88695 34.6888 8.60287 38.7795 16.5421 42.2898C17.5612 42.7413 19.1078 43 20.7833 43C22.4603 43 24.0055 42.7413 25.0246 42.2898C32.9638 38.7788 36.679 34.6874 37.7088 28.2596C39.5858 27.9701 41.5667 26.8212 41.5667 23.2659C41.5667 20.1713 40.3713 19.1973 39.3314 18.935ZM37.0287 26.918L36.4454 26.9588L36.3687 27.5286C35.3983 34.7633 30.8969 38.1474 24.4376 41.0048C23.6091 41.3717 22.2439 41.5903 20.784 41.5903C19.3256 41.5903 17.9597 41.371 17.1305 41.0048C10.6704 38.1482 6.16907 34.7633 5.19942 27.5286L5.12417 26.9588L4.53937 26.918C2.3908 26.7675 1.43333 25.6409 1.43333 23.2659C1.43333 21.2692 1.94145 20.258 2.94622 20.258C2.99495 20.258 3.04727 20.2602 3.1003 20.2645C3.23718 20.994 3.39987 21.5258 3.59408 21.8813C4.08572 22.7771 5.01093 23.2651 5.11413 23.3175L6.35038 23.9438L6.15187 22.5893C6.15043 22.5743 5.94332 21.1338 6.01857 19.1744C6.58402 11.1055 7.09357 10.5744 10.3759 10.5744C11.2395 10.5744 12.3045 10.6432 13.5393 10.722C15.4413 10.8439 17.8099 10.9958 20.784 10.9958C23.7582 10.9958 26.1268 10.8439 28.0288 10.7213C29.2636 10.6425 30.3286 10.5737 31.1908 10.5737C34.4745 10.5737 34.9841 11.1062 35.5467 19.1694C35.6212 21.1402 35.4148 22.5743 35.4119 22.5886L35.212 23.9438L36.4497 23.3167C36.5543 23.2644 37.4788 22.7764 37.9697 21.8805C38.1654 21.5244 38.328 20.9933 38.4664 20.2637C39.575 20.1806 40.1305 21.1711 40.1319 23.2652C40.1333 25.6416 39.1759 26.7682 37.0287 26.918Z" fill="white"/>
<path d="M26.5896 32.6075H14.9804C14.3354 32.6075 14.3354 33.2217 14.3354 33.2217C14.3354 35.6799 17.5604 36.9075 20.7854 36.9075C24.0104 36.9075 27.2354 35.6799 27.2354 33.2217C27.2346 33.2217 27.2346 32.6075 26.5896 32.6075ZM15.768 20.8778C15.768 20.4822 15.687 20.1088 15.5566 19.7584C16.294 20.2937 16.8888 21.0147 17.2013 21.9514C17.2013 16.2195 7.16797 16.2195 7.16797 21.2362C7.63524 20.0666 8.7174 19.2868 10.0081 18.9056C9.56311 19.4668 9.32001 20.1616 9.31797 20.8778C9.31797 21.7331 9.65775 22.5534 10.2625 23.1582C10.8674 23.763 11.6876 24.1028 12.543 24.1028C13.3983 24.1028 14.2186 23.763 14.8234 23.1582C15.4282 22.5534 15.768 21.7331 15.768 20.8778ZM24.368 21.9514C24.6804 21.014 25.2738 20.2937 26.0127 19.7584C25.8757 20.1158 25.8041 20.495 25.8013 20.8778C25.8013 21.7331 26.1411 22.5534 26.7459 23.1582C27.3507 23.763 28.171 24.1028 29.0263 24.1028C29.8816 24.1028 30.7019 23.763 31.3067 23.1582C31.9115 22.5534 32.2513 21.7331 32.2513 20.8778C32.2486 20.1617 32.0056 19.4671 31.5612 18.9056C32.8519 19.2868 33.934 20.0666 34.4013 21.2362C34.4013 16.2195 24.368 16.2195 24.368 21.9514ZM20.7846 30.4575C23.7803 30.4561 25.2781 28.3075 23.7803 28.3075H17.7897C16.2926 28.3075 17.789 30.4575 20.7846 30.4575Z" fill="white"/>
</svg>
